<?xml version="1.0" standalone="no"?><!DOCTYPE svg PUBLIC "-//W3C//DTD SVG 1.1//EN" "http://www.w3.org/Graphics/SVG/1.1/DTD/svg11.dtd"><svg t="1505658342046" class="icon" style="" viewBox="0 0 1024 1024" version="1.1" xmlns="http://www.w3.org/2000/svg" p-id="1062" xmlns:xlink="http://www.w3.org/1999/xlink" width="200" height="200"><defs><style type="text/css">@font-face { font-family: uc-nexus-iconfont; src: url("chrome-extension://pogijhnlcfmcppgimcaccdkmbedjkmhi/res/font_9qmmi8b8jsxxbt9.woff") format("woff"), url("chrome-extension://pogijhnlcfmcppgimcaccdkmbedjkmhi/res/font_9qmmi8b8jsxxbt9.ttf") format("truetype"); }
</style></defs><path d="M328.96 597.76c-3.84 8.96-12.8 14.08-23.04 14.08-3.84 0-6.4-1.28-10.24-2.56-12.8-5.12-17.92-20.48-11.52-33.28l64-138.24c-12.8-3.84-26.88-6.4-40.96-6.4h-3.84c-85.76 3.84-153.6 74.24-151.04 160 1.28 83.2 70.4 151.04 153.6 151.04h3.84c40.96-1.28 79.36-17.92 107.52-47.36s43.52-69.12 42.24-110.08c-1.28-51.2-28.16-97.28-67.84-124.16l-62.72 136.96zM686.08 384l-183.04 3.84 144.64 79.36zM757.76 503.04H755.2c-62.72 1.28-112.64 53.76-111.36 116.48 1.28 61.44 52.48 111.36 113.92 111.36h2.56c30.72-1.28 58.88-12.8 80.64-35.84 20.48-21.76 32-51.2 32-81.92-2.56-60.16-53.76-110.08-115.2-110.08z" fill="#f10d06" p-id="1063"></path><path d="M512 0C229.12 0 0 229.12 0 512s229.12 512 512 512 512-229.12 512-512S794.88 0 512 0z m249.6 782.08h-3.84c-88.32 0-161.28-71.68-163.84-160 0-24.32 5.12-48.64 14.08-69.12 0-1.28 0-1.28 1.28-2.56l17.92-37.12-206.08-112.64-7.68 15.36c56.32 35.84 94.72 97.28 96 167.68 1.28 53.76-19.2 106.24-56.32 144.64-37.12 39.68-88.32 61.44-142.08 62.72h-5.12c-110.08 0-200.96-89.6-203.52-199.68-2.56-111.36 87.04-204.8 199.68-207.36h5.12c21.76 0 42.24 3.84 61.44 10.24L396.8 332.8l-121.6 2.56c-14.08 0-25.6-10.24-25.6-24.32 0-14.08 10.24-25.6 24.32-25.6L435.2 281.6c8.96 0 16.64 3.84 21.76 11.52 5.12 7.68 5.12 16.64 1.28 24.32l-10.24 21.76 261.12-5.12 23.04-49.92h-20.48c-14.08 0-24.32-10.24-24.32-24.32 0-14.08 10.24-25.6 24.32-25.6l121.6-2.56c14.08 0 25.6 10.24 25.6 24.32 0 14.08-10.24 25.6-24.32 25.6l-44.8 1.28-83.2 179.2c15.36-5.12 33.28-8.96 49.92-8.96h3.84c88.32 0 161.28 71.68 163.84 160 1.28 43.52-15.36 85.76-46.08 116.48-32 33.28-72.96 51.2-116.48 52.48z" fill="#f10d06" p-id="1064"></path></svg>